<?xml version="1.0" encoding="UTF-8" standalone="no"?>
<svg
   xmlns="http://www.w3.org/2000/svg"
   viewBox="0 0 35.026669 30.76"
   height="30.76"
   width="35.026669"
   xml:space="preserve"
   id="svg2"
   version="1.1">
   <g transform="matrix(1.3333333,0,0,-1.3333333,0,30.76)" id="g10">
   <g transform="scale(0.1)" id="g12">
     <path
       id="path14"
       style="fill:#FFFFFF;fill-opacity:1;fill-rule:nonzero;stroke:none"
       d="m 78.2891,115.738 c -17.0196,0 -33.4727,7.375 -33.4727,41.422 0,32.621 20.418,38.293 32.0586,38.293 h 4.9102 L 109.492,140.137 C 104.68,123.113 91.0547,115.738 78.2891,115.738 M 207.938,230.684 161.973,139.957 115.859,230.684 H 60.9688 c -0.6563,-0.118 -1.3282,-0.211 -1.9649,-0.336 C 24.1094,223.824 0,198.293 0,150.637 0,112.906 24.9609,79.9961 68.3594,79.9961 c 15.3203,0 32.9106,3.6914 43.1246,19.0078 l 0.567,-0.5703 C 111.77,51.0664 93.3203,35.4648 74.8828,35.4648 c -13.6133,0 -23.543,6.8008 -26.0937,22.4063 v 0.2812 H 4.53125 C 8.50781,22.4063 36.0273,0 74.6094,0 98.1445,0 121.973,9.64844 137.859,34.6094 V 1.42188 h 48.227 V 87.9414 l 76.578,142.7736 -54.726,-0.031" />
   </g>
 </g>
</svg>
